<svg xmlns="http://www.w3.org/2000/svg" viewBox="0 0 154.54 97.24"><defs><style>.cls-1{font-size:24px;fill:#fdfdfd;}.cls-1,.cls-3{font-family:Roboto-Medium, Roboto;font-weight:500;}.cls-2{letter-spacing:-0.01em;}.cls-3{font-size:20.34px;fill:#fff;}.cls-4{fill:none;stroke:#fff;stroke-miterlimit:10;stroke-width:2px;}</style></defs><title>logo_white</title><g id="Capa_2" data-name="Capa 2"><g id="Capa_1-2" data-name="Capa 1"><text class="cls-1" transform="translate(0 90.73)">D<tspan class="cls-2" x="15.68" y="0">r</tspan><tspan x="23.93" y="0">eam Escape</tspan></text><text class="cls-3" transform="translate(57.59 66.76)">VR</text><path class="cls-4" d="M125.27,44.21c2.26-16.66-11.68-21.54-17.43-22.83a4.18,4.18,0,0,1-3.08-2.75C99.27,2,85.89,1,82.5,1,82,1,81.42,1,80.87,1A19.46,19.46,0,0,0,64.23,9.53a5,5,0,0,1-4.94,2C48,9.54,43,12.78,42,13.66c-.22.18-.45.34-.69.5A14.91,14.91,0,0,0,34.9,25.42a4.76,4.76,0,0,1-3.82,4.18,13.29,13.29,0,0,0-7.72,4.92,17.37,17.37,0,0,0-2.19,18.85A15.77,15.77,0,0,0,27,59.68a12.11,12.11,0,0,0,6.29,1.72h26"/><path class="cls-4" d="M83.8,61.54h25.31a13.74,13.74,0,0,0,8-2.48c7.41-5.32,8.28-16,8.28-16"/></g></g></svg>