<svg xmlns="http://www.w3.org/2000/svg" viewBox="0 0 31.33 21.17"><defs><style>.cls-1{fill:none;stroke:#33326e;stroke-miterlimit:10;stroke-width:0.75px;}</style></defs><title>favicon</title><g id="Capa_2" data-name="Capa 2"><g id="Capa_1-2" data-name="Capa 1"><path class="cls-1" d="M9,13.39s-.06.18-.18.48c-.59,1.51-2.65,6.06-6.05,6a1.49,1.49,0,0,1-1-.4C.59,18.36-1.81,14.24,4.92,1.22c0,0,2.44-1.78,3.91-.17,0,0,8.49,1.57,13.29.86,0,0,2.37-2,4.1-.69,0,0,7.42,13,3.69,18.65a2,2,0,0,1-2.93.51c-1.07-.81-1.66-2.26-4-5.61-.26-.37-.56-1.63-1-1.3A3.08,3.08,0,0,1,18.25,13l-5.9-.39A2.47,2.47,0,0,1,9,13.39Z"/><circle class="cls-1" cx="10.28" cy="9.67" r="1.89" transform="translate(-3.14 5.3) rotate(-25.21)"/><circle class="cls-1" cx="20.53" cy="9.8" r="1.91" transform="translate(-2.22 9.68) rotate(-25.21)"/><path class="cls-1" d="M25.44,3.82a.67.67,0,0,1-.14.95.69.69,0,0,1-1-.15.68.68,0,0,1,.15-1A.67.67,0,0,1,25.44,3.82Z"/><path class="cls-1" d="M23.87,5.54a.72.72,0,0,1-.16,1,.71.71,0,0,1-1-.16.73.73,0,1,1,1.17-.86Z"/><path class="cls-1" d="M27.14,5.32a.68.68,0,0,1-1.09.8.68.68,0,1,1,1.09-.8Z"/><path class="cls-1" d="M25.64,7.25A.66.66,0,1,1,24.57,8a.66.66,0,1,1,1.07-.78Z"/><path class="cls-1" d="M5.19,4.74l.1-1a.4.4,0,0,1,.42-.37h.73a.47.47,0,0,1,.45.45L7,4.65l.82.09c.26,0,.39,0,.37.24l0,.95a.43.43,0,0,1-.38.38l-1,.1-.11.81a.41.41,0,0,1-.37.37l-.72.1a.33.33,0,0,1-.38-.34l0-1-1,.07a.35.35,0,0,1-.38-.38L4,5.13a.34.34,0,0,1,.32-.31Z"/></g></g></svg>