<svg xmlns="http://www.w3.org/2000/svg" viewBox="0 0 461.09 544.93"><defs><style>.cls-1,.cls-2,.cls-3{fill:none;stroke:#353373;stroke-miterlimit:10;}.cls-1{stroke-width:2px;}.cls-3{stroke-width:0.75px;}</style></defs><title>abi_1</title><g id="Capa_2" data-name="Capa 2"><g id="Capa_4" data-name="Capa 4"><path class="cls-1" d="M87.43,397.85l-49.86,9.06A45.53,45.53,0,0,0,6.2,429.13C3.32,434.19,1,438.58,1,439.65"/><path class="cls-1" d="M397.75,395l36,8.61a37.63,37.63,0,0,1,23.68,17.08,16.9,16.9,0,0,1,2.62,6.9"/><path class="cls-1" d="M218.66,258s-11.34-.95-12.75-5.67,1.89-24.56,4.72-23.62"/><path class="cls-1" d="M251.25,260.85s12.28-4.72,11.81-7.56.94-19.84-1.89-20.31l-2.84-.47"/><path class="cls-1" d="M232.36,256.6s-6.62-16.53-9.92-14.64-2.84,8-1.42,8.5"/><path class="cls-1" d="M245.11,252.35s-.47-6.61,2.36-6.61,4.72,4.72,3.31,6.61"/><path class="cls-1" d="M206.38,181.5a32.37,32.37,0,0,0-21.44-13.8A21.86,21.86,0,0,0,169.31,171c-5,3.28-11.39,7.81-11.11,9.54"/><path class="cls-2" d="M161,182.44s8.5,5,17.47,5.2c5.53.1,21.26-.94,22.67-1.89"/><path class="cls-2" d="M273,192.84l3.3-1.89s20.31,5.66,31.18,3.3"/><path class="cls-1" d="M175.49,174.79l-.23,1.62a7.88,7.88,0,0,0,2,6.41h0a8.45,8.45,0,0,0,6.66,2.73l2.22-.11a6.35,6.35,0,0,0,5-2.9l1.37-2.13a5.65,5.65,0,0,0,.84-3.8L193,174a4.57,4.57,0,0,0-2.9-3.67,20.66,20.66,0,0,0-8.47-1.35A6.69,6.69,0,0,0,175.49,174.79Z"/><path class="cls-1" d="M281.24,185.24l.14,2.07a6.18,6.18,0,0,0,5.4,5.74c2.8.36,6,.73,7.45.73,2,0,3.36-3,3.93-4.61a10.4,10.4,0,0,0,.43-1.75l.61-4.08a5.17,5.17,0,0,0-4.31-5.88,21.69,21.69,0,0,0-8.93.26A6.65,6.65,0,0,0,281.24,185.24Z"/><path class="cls-1" d="M180.87,176.62h0A5.49,5.49,0,0,0,183,181a2.1,2.1,0,0,0,2.18.48,9.1,9.1,0,0,0,2.73-3.25,3.57,3.57,0,0,0-1.32-5l-.13-.07A3.81,3.81,0,0,0,180.87,176.62Z"/><path class="cls-1" d="M286.75,183.44h0a5.48,5.48,0,0,0,2.08,4.4,2.07,2.07,0,0,0,2.17.49,9.18,9.18,0,0,0,2.73-3.25,3.56,3.56,0,0,0-1.31-5l-.14-.07A3.8,3.8,0,0,0,286.75,183.44Z"/><path class="cls-2" d="M191.27,292.49s18.91-4.46,25.49-3.91a7.59,7.59,0,0,1,1,.14c5.43,1.18,32.11,3.54,33.77,3.07,0,0,22.9,1.18,22.67,4.72"/><path class="cls-2" d="M197.88,292.49s-1.42.71-.24,4.73a3.94,3.94,0,0,0,4.07,2.84,8,8,0,0,1,4.23,1.29,8.7,8.7,0,0,0,3,1.54c1.18,0,6.85,2.59,7.55,1.89s16.06,3.77,16.3,1.65c0,0,12.75,2.36,13.46.71.59-1.39,7.15,1.37,9.27.5a13.46,13.46,0,0,1,4.26-1.1c2.7-.16,5.88-.56,5.6-1.53l1.9-1.56a8.44,8.44,0,0,0,3.11-6.94l-.05-1.18"/><path class="cls-2" d="M196.46,307.85s13.23,6.08,23.74,11.67c6.19,3.29,20.57,4.08,27.27,2,9.92-3.05,22.91-10.62,27.63-17.24"/><path class="cls-2" d="M190.32,289.66s16.64-8.07,24-10.87a11.2,11.2,0,0,1,5.44-.64l10.47,1.36,3.77.89a8.54,8.54,0,0,0,2.42.22l11-.58a19.42,19.42,0,0,1,10.45,2.39c5.51,3.05,13.63,7.71,13.47,8.65"/><path class="cls-3" d="M232.83,297.45s1.18-4.25-.71-5.9"/><path class="cls-2" d="M216.06,296.75s-.23,5.19,1.18,6.37"/><path class="cls-2" d="M248.42,299.58s-.48,4.25-1.18,4.72"/><path class="cls-1" d="M318.48,144.34l-7.56-6.61c-4.09-6-28.34-7.87-28.34-7.87l-9.26.66a11.61,11.61,0,0,0-6.93,2.94L260.22,139l2.71,3.54a15.13,15.13,0,0,0,12,5.91h3.56a18.88,18.88,0,0,0,5.34-.76c5.37-1.57,18.06-4.94,24.9-4,0,0,13.54,3.78,13.54,5.67"/><path class="cls-1" d="M188.12,142.77l-15.43-5.35s-7.56-.95-12,2.52-9.76,8.81-9.76,8.81"/><path class="cls-1" d="M189.38,143.08l18.26,2.21-.32-13.54s-38.41-2.52-39.36-1.89-22,22-22,22"/><path class="cls-1" d="M280.53,55.86c8-.72,34.73,67.63,46.63,99.18a120.44,120.44,0,0,1,7.28,31.83c1.65,18.45,1,47.76.69,53.7-.25,4.72-5.95,46.26-5.95,46.26-6.14,32.59-38.26,70.37-38.26,70.37-30.7,18.9-62.34,20.31-62.34,20.31-6.94.73-36.43-14.89-49.48-22a33.84,33.84,0,0,1-11.93-10.94l-.36-.54a193.27,193.27,0,0,1-29.91-79.82l-4.2-30.24s-.47-77.46,5.19-91.63c0,0,17.48-67.07,31.65-77.94,0,0,25.36-18.91,33-18.19a9.43,9.43,0,0,0,4.38-.7c5.82-2.32,17.3-1,19.74,0"/><path class="cls-1" d="M299.43,345.39c-20.79,28.82-11.34,112.89-11.34,112.89s17.5,27.82,13.29,48.92c-2.5,12.47,94.26,1.31,100.4.84s29.8-4.56,31.22-9.28-23.52-85.82-26.36-89.13-24.09-89.74-24.09-89.74c4.73-5.2-11.33-173.34-11.33-173.34l-29.28-94C328.89,15.61,280.57,4.5,258.75,1.32a31.39,31.39,0,0,0-19.43,3.47l-8.85,4.79s15.58,6.14-5.67-2.84c-.64-.27-1.29-.51-2-.72-21.64-6.91-59,14.42-59,14.42C143.56,33.19,119,105,119,105c-7.56,1.42-25.5,175.71-25,181.37S77.44,443.64,77.44,443.64l-.36,45.76a33.31,33.31,0,0,0,17.33,29.46c14.12,7.72,14.59,12,39.06,6.06,18.47-4.46,35.34,22.81,36.28,18.56s54.47-7.73,54-14.34c-.41-5.8-32.53-128.33-44.49-145.78a27.28,27.28,0,0,1-4.84-13.06L172.85,352"/><path class="cls-1" d="M269.2,184.81l9-5.67a30.17,30.17,0,0,1,11.19-3.48,23.37,23.37,0,0,1,19.46,7.63l5.72,6.24"/><path class="cls-1" d="M157.26,166.86s13.22-11.81,15.59-11.34c0,0,14.64-3.07,18.89.24"/><path class="cls-1" d="M316.43,175.12s-9.51-14.35-15.82-14.17a26.06,26.06,0,0,1-4.68-.81c-2.59-.52-9.57.81-14,3.65"/><polyline class="cls-1" points="210.25 475.98 262.56 494.54 297.16 476.82"/></g></g></svg>