<svg xmlns="http://www.w3.org/2000/svg" viewBox="0 0 507.39 480.3"><defs><style>.cls-1,.cls-2,.cls-3{fill:none;stroke:#353373;stroke-miterlimit:10;}.cls-1{stroke-width:2px;}.cls-3{stroke-width:0.5px;}</style></defs><title>irene_3</title><g id="Capa_2" data-name="Capa 2"><g id="Capa_6" data-name="Capa 6"><path class="cls-1" d="M265.09,54.89s-44.71,2.53-59.9,13.5-28.69,147.66-54,146c0,0-40.5,22.78-52.31,15.19l-3.38-4.22s38.81-17.72,38-21.94,7.59-104.63,5.91-102.09S147,33,206,13.55c0,0,48.94-24.47,79.31-5.07l11.82,5.91"/><path class="cls-1" d="M299.69,6.8s57.37.84,80.15,29.53c0,0,20.25,61.59,19.41,73.4s-10.12,37.13-10.12,37.13l5.06,38.81L384.06,209.3l-16.87-51.47L364.66,119s-39.66-61.59-47.25-65"/><path class="cls-1" d="M144.44,216.89s9.28,80.16,15.19,94.5c0,0,46.4,84.37,94.5,80.16,0,0,48.93,1.68,83.53-38,0,0,34.59-37.13,32.06-39.66-1.2-1.2-.12-16.83,1.34-32.94,1.62-17.83,3.72-36.25,3.72-36.25s13.5-27,5.91-24.47l-8.44-40.5"/><path class="cls-2" d="M396.72,190.73l-8.44,25.32-.55,10.09-1.31,24a38.48,38.48,0,0,1-8.37,21.94l-2.42,3"/><path class="cls-1" d="M191.69,361.17s-2.53,59.06,0,62.44"/><path class="cls-1" d="M349.47,345.14s.26,13.76.63,27c.3,10.64.68,21,1.06,23.59"/><path class="cls-1" d="M352.84,373.83S501.34,448.08,502.19,454s4.22,26.16,4.22,26.16"/><path class="cls-1" d="M186.63,374.67,72.15,407.93A48.32,48.32,0,0,0,53.54,418.2C37,432.92,1,465.28,1,469.17"/><path class="cls-2" d="M184.94,379.73s-21.1,15.19-20.25,33.75l1.69,66.66"/><line class="cls-1" x1="314.88" y1="477.61" x2="374.78" y2="384.8"/><path class="cls-2" d="M204.34,286.92s43-4.22,43.88-1.69,35.44-1.68,35.44-1.68l33.75,11"/><path class="cls-2" d="M212.78,298.73s24.28,12.57,33.75,15.19c3,.83,25.68-3.17,37.52-4.87a34.44,34.44,0,0,0,13.35-4.88l7.35-4.59"/><path class="cls-2" d="M205.19,297.05s31.5,28.87,45.56,34.59c3,1.24,14.4-1.68,22-3.35a36.37,36.37,0,0,0,13.49-6l30.28-21.83"/><polyline class="cls-2" points="312.34 283.55 281.97 275.95 268.47 277.64 247.38 276.8 206.03 279.33"/><path class="cls-3" d="M201.81,261.61s-13.5,16.69-14.06,22.12c-.53,5.11,3.09,18.38,3.09,18.38"/><path class="cls-3" d="M317.41,264.14l10,13.91a17,17,0,0,1,2.23,15.53l-2.12,6"/><path class="cls-2" d="M230.5,234.61s-5.91,4.22-5.06,8.44,11.81,17.71,11.81,12.65"/><path class="cls-2" d="M282.81,258.23l5.49-5.91a18.76,18.76,0,0,0,5-13.94l-.34-5.46"/><path class="cls-2" d="M238.09,249s12.66,7.6,13.5,10.13,11.82.84,11.82.84l8.27-8.28a9.21,9.21,0,0,1,6.5-2.69h1.26"/><path class="cls-1" d="M291.25,189.89s15.56-10.59,21.09-11c5.05-.34,24.47,3.38,26.16,5.91"/><path class="cls-1" d="M170.59,194.11l14.35-5.06s16.5-8.82,23.62-9.29c0,0,20.25.85,21.94,8.44"/><path class="cls-1" d="M180.44,193.83s26.44-2.82,30.65-2,14.35-.85,14.35-.85"/><path class="cls-1" d="M286.19,192.7s48.09-6.19,48.65-4.78,9.57,3.66,9.57,3.66"/><path class="cls-1" d="M302.78,183.7a5,5,0,0,0-.28,5.06c1.41,2.82,29.81-2,29.81-2s-1.12-3.38-3.09-3.94"/><path class="cls-1" d="M197.59,184.83s2,5.9,3.94,5.9,20.53.28,20.53.28l.85-6.18"/><path class="cls-1" d="M177.34,164.58s13.79-7.88,15.47-7.32,34.88,2.25,36.85,7.6-1.41-7.6-1.41-7.6-19.69-10.12-49.22-2.53"/><path class="cls-1" d="M288.72,162.89l7.87-1.13s18.29-9.84,19.41-8.71c0,0,21.94-1.41,32.63,7.87L352,166s6.75-14.62-33.19-23.06c0,0-33.47,7.59-35.43,12.38"/><path class="cls-1" d="M211.85,181.32a3,3,0,0,0-1.23,5.23c1.42,1.12,3.11,2.23,3.85,1.93l1.41-.56,2.53-2.25-.28-2.53S214.8,180.83,211.85,181.32Z"/><path class="cls-1" d="M313.51,181.14a2.9,2.9,0,0,0-.86,5.07c1.43,1.14,3.16,2.29,3.91,2l1.41-.56,2.53-2.25-.28-2.53S316.55,180.32,313.51,181.14Z"/><path class="cls-1" d="M146.69,231.8l-15,18.58a3,3,0,0,0,2.79,5l4.88-1.39h0c-2.84,3.14-8.47,20.34,4.79,12.1l5.62-2.53"/><path class="cls-2" d="M350.31,180.61s-15.18-16.88-20.25-16.88"/><path class="cls-2" d="M184.94,173.86s13.5-8.44,21.94-3.38"/><line class="cls-2" x1="260.31" y1="299.86" x2="259.75" y2="309.98"/><line class="cls-2" x1="245.69" y1="300.42" x2="246.25" y2="306.61"/><line class="cls-2" x1="275.5" y1="298.73" x2="276.63" y2="308.86"/><path class="cls-2" d="M282,187.08s4.22-6.19,3.94-8.72"/><path class="cls-2" d="M293.22,184.83S305.59,177,307,177s20.81-1.69,26.16,3.1c0,0,9,6.18,9.56,7"/><path class="cls-2" d="M179.88,189.33l14.62-7.6s14.06-5.34,20.25-4.22c0,0,5.34-.28,6.47,1.41"/></g></g></svg>