<svg xmlns="http://www.w3.org/2000/svg" viewBox="0 0 516.87 574.99"><defs><style>.cls-1,.cls-2,.cls-3{fill:none;stroke:#353373;stroke-miterlimit:10;}.cls-1{stroke-width:3px;}.cls-2{stroke-width:2px;}.cls-3{stroke-width:0.75px;}</style></defs><title>laura2</title><g id="Capa_2" data-name="Capa 2"><g id="Capa_2-2" data-name="Capa 2"><path class="cls-1" d="M283.3,33.73S178.67,104.61,170.23,146"/><path class="cls-1" d="M161.8,124S146.61,155.23,150,181.39"/><path class="cls-1" d="M80.8,362.79c1.33-8.64,24.14-73.89,33.75-101.15a72,72,0,0,0,4.14-23.12c.68-61.54,19.48-97.63,19.48-97.63,2.35-3.77,1.82-12.78.89-20a37.49,37.49,0,0,1,4.16-22.67c7.81-14.45,20.91-35.69,27.7-46.55a44.4,44.4,0,0,1,11.27-12.19C240.85-3.84,276.54.64,285.36,2.74a9,9,0,0,1,3.32,1.6c1.93,1.49,6.05,4,10.44,2.46a12.32,12.32,0,0,1,6-.42C320.35,8.78,374.68,22.63,413.5,100a26.24,26.24,0,0,1,2.14,6.13c1.91,8.79,6.91,33.11,6.44,44.12a57.18,57.18,0,0,0,.28,9.16c1.77,15.52,6.44,57.54,7.05,76a58.13,58.13,0,0,0,3,16.58c5.9,17.68,17.67,56.57,12.68,72.09a27.86,27.86,0,0,0-1,3.82c-1,5.6-3.75,20.27-6.26,25.9a18.45,18.45,0,0,0-1.5,8.4l3.08,63s22.78,64.13,21.09,69.19-18.11,33.3-21.09,36.28c-3.66,3.66-16,27-27,21.94s-40,1.51-43,0C366,551,299.23,476.89,290.8,461.32c-4.25-7.83,17.84-39.79,25.44-50.38a29,29,0,0,0,3.91-7.61l23.54-69.59"/><path class="cls-1" d="M165.17,160.29s-.62,42.16-1.33,58.45A44.4,44.4,0,0,0,165,230.68l13.58,57.88a43.79,43.79,0,0,0,2.77,8.13l4.77,10.49a43.67,43.67,0,0,0,5,8.37,232.88,232.88,0,0,0,29.53,32,66.8,66.8,0,0,0,32,15.69l.44.08a62.1,62.1,0,0,0,32.06-2.49c9-3.17,21.35-7.56,32-11.5a69.57,69.57,0,0,0,33.67-26.58c2.27-3.4,4.69-6.88,7-10A71.35,71.35,0,0,0,371,281.56c3.81-23.44,9.62-58.83,10.18-60.52.71-2.14,2.63-45.29,2.7-68.26a43.54,43.54,0,0,0-5.31-21c-2.16-4-4.64-7.69-6.67-8.6-2.91-1.31-4.06-4.68-4.35-8.49A59.24,59.24,0,0,0,352.17,79C338.35,63.92,318.43,45.55,301,42.17"/><path class="cls-1" d="M160.11,254s8.44,16.87,12.66,16.87"/><path class="cls-1" d="M205.39,332.7s10.23,47,11.25,52.87c1.09,6.29,43.92,53.79,36.22,74.25-.53,1.42-1.26,6.59-1.63,8.07-2.95,11.95-15.17,56.9-21.09,56.9-5.37,0-118.78,7.78-163.41,3.66-3.52-.33,14.9-37.09,22.61-52.16a36.18,36.18,0,0,0,3.9-19.35c-1.44-18.09-9.07-43.52-9.07-43.52l34.6-124.88"/><path class="cls-1" d="M440,426.92l52.89,36.17a3.12,3.12,0,0,1,1.37,2.7c-.09,2.56-.49,6.69-2.27,5.94-1.62-.68-4.78-3.47-7-5.51a2.63,2.63,0,0,0-4.06.58c-9.67,16.28-57.21,97.16-54.18,107.77"/><line class="cls-1" x1="515.89" y1="493.48" x2="483.69" y2="465.66"/><path class="cls-1" d="M84.17,413.42s-18.25,2.12-28.5,5c-3.37.93-15.71,12.59-17.25,15-10.31,16.12-34,58-36.94,77.9"/><path class="cls-2" d="M231.36,298.76s17.34,12.56,21.56,12.56c0,0,29.06,2.25,43.13-3.75l16.68-14.06c.9-.85-1.45-.6-2.68-.52l-35.35,2.26a7.59,7.59,0,0,0-1.35.21l-8.8,2.18-13.38-1.34a8.4,8.4,0,0,0-2.4.17c-5.33,1-31.29-7.93-31.29-7.93"/><path class="cls-2" d="M236.89,290.89l14.52-.77a12.11,12.11,0,0,1,3,.22l4.12.82a12.74,12.74,0,0,0,5.63-.13l9.38-2.35a8.58,8.58,0,0,1,2.67-.22l30.71,2.43"/><path class="cls-2" d="M251.23,252.26s-5.15-2.53-6.28-2.34l-2.51.39a1.15,1.15,0,0,0-.87,1.67,4,4,0,0,0,2.73,1.78c3.56.94,3.84.1,3.84.1"/><path class="cls-2" d="M272.05,257.7s2.9-6.66,4.22-7.31,3.4-1.22,7.68-.57c1.79.28,3.3,1.23,3.1,3a1,1,0,0,1-.19.54c-.56.56-8.72,2.25-9.56,1.12"/><path class="cls-2" d="M267,261.26s19.63-.65,23.91-1.12c1.9-.21,8.3-7,9.14-8.86,1.11-2.49-5.45-17.76-10.26-19.27-2.09-.65-6.14-1.65-6.47-1.4"/><path class="cls-2" d="M254.23,258.82s-13.87,1.13-18.93-4.68c0,0-5.07-5.82-2.63-13.32s6.75-8.81,6.75-8.81"/><path class="cls-3" d="M256.48,249.26s4.13,9.56,5.82,9.56"/><path class="cls-2" d="M208.3,189.64c11.81,1.12,22.5-.75,23.25-1.5s5.06.18,5.06.18"/><path class="cls-2" d="M189,185.51s11.58-9.19,14.07-10c0,0,4.59-3.95,25.57-1.3a3.11,3.11,0,0,1,2.57,2.13,47.14,47.14,0,0,0,1.86,5.08"/><path class="cls-2" d="M187.67,180.45c-1.31-1.88,2-8.2,4.31-9.56,0,0,8.29-7,28.89-5.48a4.38,4.38,0,0,1,1.08.2c1.75.52,7.23,2.2,8.1,3"/><path class="cls-2" d="M241.2,158.42s-20.15-3.14-22-3.8c-.67-.24-.65-.82-13.53-4.27a8.66,8.66,0,0,0-4.84.09c-6.37,2-25.69,10-25.74,9.94-1.59-1.12-.39-2.69.39-3.85a4.33,4.33,0,0,1,.93-1c3-2.21,17-11.75,19-12.41,2.21-.74,23.1-2.76,40.86,5.26,1,.46,6.86,4.64,6.86,5.61,0,1.31-2.44,4.6-2.44,4.6"/><path class="cls-2" d="M348.36,183.07a66.94,66.94,0,0,0-11.08-8.44,14.69,14.69,0,0,0-8-1.89c-4.49.22-14.06-.92-21.31,4.67-2.45,1.9-5.28,3.25-7.56,5.35l-1.55,1.44"/><path class="cls-2" d="M337.48,190.2s-16.07.29-20.85-.9a32.87,32.87,0,0,0-4.93-.89c-3.58-.31-8.66-.88-9.84-1.59"/><path class="cls-2" d="M352.11,176.7c.21.17-11.35-8.93-14.63-9.38-5.12-.69-24.07.11-25.12.38-3.83,1-10.22,4.26-10.64,6.37"/><path class="cls-2" d="M293.71,160.52l3.79,1.58a5.17,5.17,0,0,0,3.51.18c5-1.55,18.1-6.1,19-6.35,2.81-.79,25.73-3.37,28.73-2.11,2.64,1.11,15.52,15.71,17.39,15.33s6.61,0,4.74-1.45c-1.49-1.19-15.66-15.07-21.5-20.8a9.36,9.36,0,0,0-6.19-2.67c-9.64-.39-35.81-.18-50.16,12.13A2.49,2.49,0,0,0,293.71,160.52Z"/><path class="cls-2" d="M204,181.57s2,6.38,3.75,6.75,13.87.87,15-.37,5.6-5.37,3.29-10.14a6.54,6.54,0,0,0-1.3-1.75l-2.36-2.36"/><line class="cls-2" x1="313.86" y1="181.95" x2="315.36" y2="188.7"/><path class="cls-2" d="M331.86,188.7s4.5-6,4-11C335.64,175.09,330,173,330,173"/><path class="cls-1" d="M238.11,512.7l52.5,2.62s35.06-7.31,36.56-9.93"/><path class="cls-2" d="M215.3,183.63l1-.13a3.83,3.83,0,0,0,3.37-4.12c-.13-1.39-.42-2.73-1.08-3.06a12.15,12.15,0,0,0-3.53-.61,3.69,3.69,0,0,0-4,3.89,7.56,7.56,0,0,0,.24,1.41A3.65,3.65,0,0,0,215.3,183.63Z"/><path class="cls-2" d="M321.48,183.7c.81,1.26,5.78,1.32,6.75.75,1.6-.94,2.58-6.42,1.13-7.88-.6-.59-2.09-.62-3.34-.88a4.5,4.5,0,0,0-5.35,3.54A6.05,6.05,0,0,0,321.48,183.7Z"/></g></g></svg>